<svg xmlns="http://www.w3.org/2000/svg" width="256" height="256" viewBox="0 0 100 100">
  <style>
    rect {
      fill: #242424;
    }
    path {
      fill: #eee;
    }
    @media (prefers-color-scheme: dark) {
      rect {
        fill: #eee;
      }
      path {
        fill: #242424;
      }
    }
  </style>
  <rect width="100" height="100" rx="20" fill="#242424"></rect>
  <path fill="#fff" d="M34.48 72.40L22.32 72.40Q21.10 72.40 20.43 71.76Q19.76 71.12 19.57 70.42L19.57 70.42L6.96 29.46Q6.90 29.20 6.90 29.01L6.90 29.01Q6.90 28.43 7.31 28.02Q7.73 27.60 8.30 27.60L8.30 27.60L18.22 27.60Q19.38 27.60 20.02 28.24Q20.66 28.88 20.85 29.52L20.85 29.52L28.40 56.21L35.95 29.52Q36.14 28.88 36.78 28.24Q37.42 27.60 38.58 27.60L38.58 27.60L48.50 27.60Q49.07 27.60 49.46 28.02Q49.84 28.43 49.84 29.01L49.84 29.01Q49.84 29.20 49.78 29.46L49.78 29.46L37.23 70.42Q37.04 71.12 36.37 71.76Q35.70 72.40 34.48 72.40L34.48 72.40ZM72.82 73.04L72.82 73.04Q66.10 73.04 61.65 71.15Q57.20 69.26 54.99 66.22Q52.78 63.18 52.66 59.79L52.66 59.79Q52.66 59.22 53.04 58.83Q53.42 58.45 54.00 58.45L54.00 58.45L64.18 58.45Q65.07 58.45 65.58 58.74Q66.10 59.02 66.67 59.54L66.67 59.54Q67.25 60.24 68.02 60.85Q68.78 61.46 70.00 61.81Q71.22 62.16 72.82 62.16L72.82 62.16Q75.76 62.16 77.36 61.36Q78.96 60.56 78.96 59.15L78.96 59.15Q78.96 58.06 78.10 57.36Q77.23 56.66 75.18 56.08Q73.14 55.50 69.62 54.86L69.62 54.86Q64.69 54.03 61.10 52.40Q57.52 50.77 55.63 47.98Q53.74 45.20 53.74 41.10L53.74 41.10Q53.74 36.94 56.08 33.74Q58.42 30.54 62.61 28.75Q66.80 26.96 72.37 26.96L72.37 26.96Q76.98 26.96 80.53 28.18Q84.08 29.39 86.51 31.34Q88.94 33.30 90.22 35.54Q91.50 37.78 91.57 39.82L91.57 39.82Q91.57 40.40 91.15 40.82Q90.74 41.23 90.22 41.23L90.22 41.23L79.54 41.23Q78.77 41.23 78.26 40.98Q77.74 40.72 77.23 40.14L77.23 40.14Q76.91 39.25 75.63 38.54Q74.35 37.84 72.37 37.84L72.37 37.84Q70.19 37.84 69.04 38.58Q67.89 39.31 67.89 40.72L67.89 40.72Q67.89 41.68 68.59 42.38Q69.30 43.09 71.09 43.63Q72.88 44.18 76.08 44.82L76.08 44.82Q82.16 45.71 85.90 47.38Q89.65 49.04 91.38 51.73Q93.10 54.42 93.10 58.45L93.10 58.45Q93.10 62.99 90.48 66.26Q87.86 69.52 83.28 71.28Q78.70 73.04 72.82 73.04Z"></path>
</svg>