<svg version="1" xmlns="http://www.w3.org/2000/svg" width="933.333" height="933.333" viewBox="0 0 700.000000 700.000000"><path d="M126 .7C102.3 4.4 95.2 6.4 79.4 14c-39.6 18.7-67 54-76.7 98.5l-2.2 10v455l2.3 10.4c12.7 56.8 52.8 96.8 109.5 109.3l10.2 2.3h455l10.2-2.3c56.5-12.5 97-53 109.5-109.5l2.3-10.2v-455l-2.3-10.4C684.4 55 643.3 14.2 586.4 2.3 579.2.8 559 .6 353.5.4 229.8.3 127.4.4 126 .7zm415 190.8c19.2 3.5 42.5 12.7 57 22.5 24 16.3 40.4 39.9 42.6 61.5.6 5.9.5 6.4-2.4 9.6l-3 3.4-38.7.3c-44.5.3-47.7 0-53-5.6-1.9-2-5.5-5.8-7.9-8.3-6-6.3-13.1-9-25.9-9.7-11.8-.6-20 1-26.3 5-4.9 3.1-8.3 9-8.4 14.3 0 4.7 4 11.6 8.5 14.7 7.6 5.1 29.2 11 60 16.4 64 11.2 95.7 31.4 104.9 67.2 6.3 24 2.8 52.3-8.6 71.7-5.2 8.8-18.7 22.8-28.4 29.5-19.8 13.7-47.4 22.9-78.3 26.1-14.3 1.5-48.8.6-62.6-1.6-38.7-6.1-69.3-22.6-86.1-46.1-9-12.6-15.4-30.3-15.4-42.7 0-4.5.4-5.8 2.6-7.8l2.6-2.4 37.6-.3c25.7-.2 39.4 0 43 .8 4.5 1 6.5 2.3 13.8 9.1 4.7 4.4 10.9 9.1 13.6 10.5 6.9 3.5 16.5 5.4 27.8 5.4 21.9 0 36.3-5.1 41-14.6 2.6-5.2 2.5-7.9-.2-13.4-4.6-9.1-19.6-14.7-58.3-22-53.1-10-81.1-22.3-98-42.8-16.5-19.9-22.4-49.5-15.5-76.9 10.1-39.4 47.3-67.4 99.6-74.8 13.6-1.9 49.4-1.4 62.4 1zm-407.5 2.6c2.3.7 5.5 2.7 7.6 4.9 4.2 4.4 1-6.1 33.8 109.9 22.1 78.2 23.9 84.2 24.9 81 .6-1.9 12.4-43.4 26.2-92.4 13.8-49 25.8-90.6 26.6-92.7 2.3-5.1 7.4-9.8 12-10.9 2.2-.4 20.5-.9 40.7-.9h36.9l3.4 3.4c2 2 3.4 4.4 3.4 5.7 0 1.3-20.2 68.2-44.9 148.7-44.2 144.4-44.9 146.4-48.6 150.2-5.9 6-7.7 6.2-60 5.8-52.3-.3-50.3 0-55.7-8.8-3.9-6.4-92.1-293.5-91.3-297.1.6-2.7 3.8-6.2 6.5-7.2 3-1.1 74.4-.7 78.5.4z"/></svg>